<?xml version="1.0" encoding="UTF-8"?>
<svg id="Layer_2" data-name="Layer 2" xmlns="http://www.w3.org/2000/svg" viewBox="0 0 1474.67 1541.63">
  <defs>
    <style>
      .cls-1 {
        fill: #222;
        stroke-width: 0px;
      }
    </style>
  </defs>
  <g id="Layer_1-2" data-name="Layer 1">
    <g>
      <path class="cls-1" d="M683.39,1239.7c-247.54-45.67-429.82-293.51-380.63-556.05,48.47-258.66,297.43-429.05,556.09-380.63,66.38,12.43,126,42.15,136.03,47.53,132.71,71.27,193.14,187.63,214.29,234.38,4.72,8.86,14.09,22.98,29.66,27.09,16.89,4.46,33-5.28,43.65-11.91,53.78-33.49,105.01-71.51,161.45-100.29,5.9-3.01,19.16-9.53,26.15-23.73,8.5-17.24,2.94-35.99.84-43.06-17.2-58.03-147.12-258.19-338.34-343.18h0s0,0,0,0c-34.74-17.64-121.25-58.13-219.47-76.53C494.45-65.11,91.45,210.71,13.02,629.39c-80.05,427.3,219.37,826.46,616.11,900.06,329.87,61.2,676.12-112.12,841.06-431.84,1.6-8.17,2.77-21.27-3.47-33.87-6.64-13.4-18.47-19.82-23.45-22.58-43.29-24.02-90.58-61.4-175.45-97.28-6.35-2.68-19.16-7.91-34.42-4.97-8.84,1.71-15.61,5.59-20.02,8.7-92.76,212.12-315.61,331.64-529.97,292.1Z"/>
      <circle class="cls-1" cx="754.51" cy="771.34" r="173.99"/>
    </g>
  </g>
</svg>